{"title":"Louie S04E01 Back 720p WEB-DL DD5 1 x265 HEVC-AuP [UTR]","uid":11675476,"size":298397588,"categoryP":"video","categoryS":"hd___tv_shows","magnet":"?xt=urn:btih:41866c19a8f9380b022a80ce8715924de2e81954&amp;dn=Louie+S04E01+Back+720p+WEB-DL+DD5+1+x265+HEVC-AuP+%5BUTR%5D&amp;tr=udp%3A%2F%2Ftracker.openbittorrent.com%3A80&amp;tr=udp%3A%2F%2Fopen.demonii.com%3A1337&amp;tr=udp%3A%2F%2Ftracker.coppersurfer.tk%3A6969&amp;tr=udp%3A%2F%2Fexodus.desync.com%3A6969","seeders":0,"leechers":2,"uploader":"Anon_up","files":1,"time":1422838466,"description":"[center][img]http://i.imgur.com/gv8mpWw.png[/img]\n\n[img]http://i.imgur.com/lrInXKU.png[/img]\n\n[url=&quot;https://kickass.so/community/show/how-play-x265-hevc-videos-encodes-pc-linux-android/&quot;][img]http://i.imgur.com/yMGYXay.png[/img][/url]\n\n\n Go to Technical Tab n refresh to see updated list of seeders\nUse Torrent instead of magnet for fast download;Enable PeX &amp; DHT\nConstructive feedback welcome\n\n\nEach episode takes 40-60 min just to encode\ndownloading &amp; uploaing n other stuff extra\n\nSpare a minute to comment on quality\nSeed till death\n\nI made this future proof by creating a near loss-less HEVC version\n\nTry Sublight to find subs..its easy \n\nSource :Louie.S04E01.Back.720p.WEB-DL.DD5.1.H.264-BS 750 MB\n\n[i]More than 60% compressed but retains 99% Quality[/i]\n\nIf u remux ,it will look like this\nCRF 20 for near lossless visual quality\nOriginal 5.1 AC3 Audio\n\nVideo: HVC1 1280x720 23.976fps [V: English [eng] (hevc main, yuv420p, 1280x720) \nAudio: Dolby AC3 48000Hz 6ch 384kbps [A: English [eng] (ac3, 48000 Hz, 5.1, 384 kb/s) \n\n\nHis 1 hour standup special is out \n[b]Louis.CK.Live.At.The.Comedy.Store is out[/b]\npay $5 n watch\nIts hilarious\n\n\nHeights of HEVC\n\nyou can't get better than this\nShould look best even on a projector\n\nSpecial encode for KAT Uploads day\n\n\nMediaInfo\n\n[spoiler]General\nUnique ID : 266929842899440248118548686450164754126 (0xC8D0D15800A26DE48C099A9A1E3BE6CE)\nComplete name : Louie.S04E01.Back.720p.WEB-DL.DD5.1.HEVC-AuP.mkv\nFormat : Matroska\nFormat version : Version 4 / Version 2\nFile size : 285 MiB\nDuration : 23mn 47s\nOverall bit rate : 1 672 Kbps\nWriting application : Lavf56.4.101\nWriting library : Lavf56.4.101\n\nVideo\nID : 1\nFormat : HEVC\nFormat/Info : High Efficiency Video Coding\nFormat profile : &lt;a class=&quot;__cf_email__&quot; href=&quot;/cdn-cgi/l/email-protection&quot; data-cfemail=&quot;f9b4989097b9b5cad7c8&quot;&gt;[email&amp;#160;protected]&lt;/a&gt;&lt;script cf-hash='f9e31' type=&quot;text/javascript&quot;&gt;\n/* &lt;![CDATA[ */!function(){try{var t=&quot;currentScript&quot;in document?document.currentScript:function(){for(var t=document.getElementsByTagName(&quot;script&quot;),e=t.length;e--;)if(t[e].getAttribute(&quot;cf-hash&quot;))return t[e]}();if(t&amp;&amp;t.previousSibling){var e,r,n,i,c=t.previousSibling,a=c.getAttribute(&quot;data-cfemail&quot;);if(a){for(e=&quot;&quot;,r=parseInt(a.substr(0,2),16),n=2;a.length-n;n+=2)i=parseInt(a.substr(n,2),16)^r,e+=String.fromCharCode(i);e=document.createTextNode(e),c.parentNode.replaceChild(e,c)}}}catch(u){}}();/* ]]&gt; */&lt;/script&gt;\nCodec ID : V_MPEGH/ISO/HEVC\nDuration : 23mn 47s\nBit rate : 1 255 Kbps\nWidth : 1 280 pixels\nHeight : 720 pixels\nDisplay aspect ratio : 16:9\nFrame rate mode : Constant\nFrame rate : 23.976 fps\nColor space : YUV\nChroma subsampling : 4:2:0\nBit depth : 8 bits\nBits/(Pixel*Frame) : 0.057\nStream size : 214 MiB (75%)\nWriting library : x265 unknown:[Linux][GCC 4.9.1][64 bit]\nEncoding settings : wpp / ctu=64 / tu-intra-depth=1 / tu-inter-depth=1 / me=1 / subme=2 / merange=57 / no-rect / no-amp / max-merge=2 / no-early-skip / no-fast-cbf / rdpenalty=0 / no-tskip / no-tskip-fast / strong-intra-smoothing / no-lossless / no-cu-lossless / no-constrained-intra / no-fast-intra / open-gop / interlace=0 / keyint=250 / min-keyint=23 / scenecut=40 / rc-lookahead=20 / bframes=4 / bframe-bias=0 / b-adapt=2 / ref=3 / weightp / no-weightb / aq-mode=2 / aq-strength=1.00 / cbqpoffs=0 / crqpoffs=0 / rd=3 / psy-rd=0.00 / psy-rdoq=0.00 / signhide / lft / sao / sao-lcu-bounds=0 / sao-lcu-opt=1 / b-pyramid / cutree / rc=crf / crf=20.0 / qcomp=0.60 / qpmin=0 / qpmax=51 / qpstep=4 / ipratio=1.40 / pbratio=1.30\nLanguage : English\nDefault : Yes\nForced : No\n\nAudio\nID : 2\nFormat : AC-3\nFormat/Info : Audio Coding 3\nMode extension : CM (complete main)\nFormat settings, Endianness : Big\nCodec ID : A_AC3\nDuration : 23mn 47s\nBit rate mode : Constant\nBit rate : 384 Kbps\nChannel(s) : 6 channels\nChannel positions : Front: L C R, Side: L R, LFE\nSampling rate : 48.0 KHz\nBit depth : 16 bits\nCompression mode : Lossy\nStream size : 65.4 MiB (23%)\nLanguage : English\nDefault : Yes\nForced : No\n\n[/spoiler]\n\n[img]http://i.imgur.com/pcnRRpx.png[/img]\n\n[/center]","torrent":{"xt":"urn:btih:41866c19a8f9380b022a80ce8715924de2e81954","amp;dn":"Louie+S04E01+Back+720p+WEB-DL+DD5+1+x265+HEVC-AuP+%5BUTR%5D","amp;tr":["udp%3A%2F%2Ftracker.openbittorrent.com%3A80","udp%3A%2F%2Fopen.demonii.com%3A1337","udp%3A%2F%2Ftracker.coppersurfer.tk%3A6969","udp%3A%2F%2Fexodus.desync.com%3A6969"],"infoHash":"41866c19a8f9380b022a80ce8715924de2e81954","infoHashBuffer":{"type":"Buffer","data":[65,134,108,25,168,249,56,11,2,42,128,206,135,21,146,77,226,232,25,84]},"announce":[],"urlList":[]}}